<svg width="24" height="24" viewBox="0 0 24 24" fill="none" xmlns="http://www.w3.org/2000/svg"><path d="M7.25 7.00098C8.07843 7.00098 8.75 7.67255 8.75 8.50098V17.001C8.75 17.8294 8.07843 18.501 7.25 18.501V7.00098Z" fill="currentColor"/><path d="M11.25 11.501C12.0784 11.501 12.75 12.1725 12.75 13.001V17.001C12.75 17.8294 12.0784 18.501 11.25 18.501V11.501Z" fill="currentColor"/><path d="M16.75 15.501C16.75 14.6725 16.0784 14.001 15.25 14.001V18.501C16.0784 18.501 16.75 17.8294 16.75 17.001V15.501Z" fill="currentColor"/><path d="M15.2197 2.22065C15.079 2.07999 14.8883 2.00098 14.6893 2.00098H3.75C3.33579 2.00098 3 2.33676 3 2.75098V21.251C3 21.6652 3.33579 22.001 3.75 22.001H20.25C20.6642 22.001 21 21.6652 21 21.251V8.31164C21 8.11272 20.921 7.92196 20.7803 7.78131L15.2197 2.22065ZM4.5 20.501V3.50098H13.5V8.75098C13.5 9.16519 13.8358 9.50098 14.25 9.50098H19.5V20.501H4.5ZM15 4.1223L18.8787 8.00098H15V4.1223Z" fill="currentColor"/></svg>