<svg width="16" height="16" viewBox="0 0 16 16" fill="none" xmlns="http://www.w3.org/2000/svg"><path fill-rule="evenodd" clip-rule="evenodd" d="M8 0C12.4183 0 16 3.58172 16 8C16 12.4183 12.4183 16 8 16C3.58172 16 0 12.4183 0 8C0 3.58172 3.58172 0 8 0Z" fill="#FF2F00"/><path d="M4 5.33331H5.67716C5.97261 5.33331 6.23998 5.50837 6.35813 5.77917L7.99332 9.52707L9.64125 5.77735C9.75983 5.50753 10.0267 5.33331 10.3214 5.33331H12L9.06223 11.5735C8.93966 11.8338 8.67778 12 8.39003 12H7.60997C7.32222 12 7.06034 11.8338 6.93777 11.5735L4 5.33331Z" fill="#FFFFFF"/></svg>