<svg width="24" height="24" viewBox="0 0 24 24" fill="none" xmlns="http://www.w3.org/2000/svg"><path d="M10.125 2.25C10.5392 2.25 10.875 2.58579 10.875 3V21C10.875 21.4142 10.5392 21.75 10.125 21.75H3C2.58579 21.75 2.25 21.4142 2.25 21V15C3.07843 15 3.75 15.6716 3.75 16.5V20.25H9.375V3.75H3.75V7.5C3.75 8.32843 3.07843 9 2.25 9V3C2.25 2.58579 2.58579 2.25 3 2.25H10.125Z" fill="currentColor"/><path d="M21 2.25C21.4142 2.25 21.75 2.58579 21.75 3V9C20.9216 9 20.25 8.32843 20.25 7.5V3.75H14.625V20.25H20.25V16.5C20.25 15.6716 20.9216 15 21.75 15V21C21.75 21.4142 21.4142 21.75 21 21.75H13.875C13.4608 21.75 13.125 21.4142 13.125 21V3C13.125 2.58579 13.4608 2.25 13.875 2.25H21Z" fill="currentColor"/><path d="M5.46973 8.46973C6.05545 9.05545 6.05545 10.0051 5.46973 10.5908L4.81055 11.25H8.25C8.25 12.0784 7.57843 12.75 6.75 12.75H4.81055L5.46973 13.4092C6.05545 13.9949 6.05545 14.9445 5.46973 15.5303L2.46973 12.5303C2.32907 12.3896 2.25 12.1989 2.25 12C2.25 11.8011 2.32907 11.6104 2.46973 11.4697L5.46973 8.46973Z" fill="currentColor"/><path d="M21.5303 11.4697C21.8232 11.7626 21.8232 12.2374 21.5303 12.5303L18.5303 15.5303C17.9446 14.9446 17.9446 13.9949 18.5303 13.4092L19.1895 12.75H17.25C16.4216 12.75 15.75 12.0784 15.75 11.25H19.1895L18.5303 10.5908C17.9446 10.0051 17.9446 9.05544 18.5303 8.46973L21.5303 11.4697Z" fill="currentColor"/></svg>