<svg width="24" height="24" viewBox="0 0 24 24" fill="none" xmlns="http://www.w3.org/2000/svg"><path d="M2.56055 10.8435C2.56055 8.00312 5.10173 4.42554 10.0537 4.42554C12.391 4.42554 14.3014 5.13 15.617 6.29636C16.8219 7.36453 17.5713 8.85693 17.6819 10.673C17.825 10.6167 17.9808 10.5858 18.1438 10.5858C18.5809 10.5858 18.9662 10.8081 19.1926 11.1458H19.1961C19.1961 8.70833 18.2574 6.63256 16.6121 5.17394C14.9746 3.72218 12.6887 2.92554 10.0537 2.92554C4.27898 2.92554 1.06055 7.16903 1.06055 10.8435C1.06055 12.3285 1.59726 13.634 2.23835 14.645C2.74945 15.451 3.34438 16.0979 3.84008 16.5327L3.49712 19.0267C3.45899 19.304 3.57845 19.5794 3.80696 19.7411C4.03546 19.9028 4.33498 19.9237 4.58378 19.7955L7.387 18.3504C10.0191 19.0676 12.7152 18.3916 13.6398 18.0221C13.0677 17.9023 12.6379 17.3949 12.6379 16.7871L12.638 16.7795C11.5827 17.0888 9.48013 17.4435 7.53525 16.831C7.34661 16.7716 7.14213 16.7891 6.96633 16.8797L5.17983 17.8007L5.3834 16.3203C5.42055 16.0501 5.30809 15.781 5.0897 15.6176C4.68974 15.3183 4.04508 14.6932 3.50513 13.8417C2.96712 12.9933 2.56055 11.9643 2.56055 10.8435Z" fill="currentColor"/><path d="M19.3928 12.4837C19.3053 11.8722 18.7794 11.4022 18.1438 11.4022C17.4469 11.4022 16.882 11.9671 16.882 12.664C16.882 13.3292 17.3967 13.8741 18.0496 13.9223C19.0541 14.1136 19.8226 14.7254 20.1034 15.0299C20.1884 15.1222 20.2618 15.2139 20.3888 15.2139C20.5617 15.2139 20.702 15.0737 20.702 14.9007C20.702 14.7776 20.6329 14.7008 20.5276 14.6199C19.7637 13.9141 19.5356 13.0863 19.3928 12.4837Z" fill="currentColor"/><path d="M14.3723 14.9948C13.7609 15.0823 13.2908 15.6082 13.2908 16.2438C13.2908 16.9407 13.8557 17.5056 14.5526 17.5056C15.2178 17.5056 15.7628 16.9909 15.8109 16.338C16.0022 15.3335 16.614 14.565 16.9185 14.2842C17.0217 14.1891 17.1026 14.1258 17.1026 13.9988C17.1026 13.8259 16.9623 13.6856 16.7894 13.6856C16.6662 13.6856 16.5879 13.7594 16.5085 13.86C15.8027 14.6239 14.9749 14.852 14.3723 14.9948Z" fill="currentColor"/><path d="M18.1424 21.0748C17.5068 21.0731 16.9822 20.6016 16.8964 19.9899C16.7553 19.3869 16.5294 18.5585 15.7675 17.8505C15.6729 17.7626 15.5936 17.6924 15.5939 17.5692C15.5944 17.3963 15.735 17.2564 15.908 17.2569C16.0349 17.2572 16.1103 17.3516 16.1929 17.4417C16.4728 17.747 17.2396 18.3609 18.2436 18.555C18.8963 18.605 19.4095 19.1513 19.4077 19.8165C19.4058 20.5134 18.8393 21.0767 18.1424 21.0748Z" fill="currentColor"/><path d="M21.9264 17.4749C22.5374 17.3846 23.005 16.8566 23.0021 16.221C22.9989 15.5241 22.4314 14.9618 21.7346 14.965C21.0694 14.968 20.5268 15.4853 20.4816 16.1384C20.2949 17.1437 19.6866 17.915 19.3834 18.1971C19.2676 18.277 19.2001 18.3565 19.2007 18.4834C19.2015 18.6564 19.3423 18.7959 19.5153 18.7951C19.6384 18.7946 19.7217 18.6999 19.7954 18.6195C20.4977 17.8524 21.3244 17.6205 21.9264 17.4749Z" fill="currentColor"/></svg>